<svg width="54" height="54" viewBox="0 0 54 54" fill="none" xmlns="http://www.w3.org/2000/svg">
<path d="M27 51.1875C13.6575 51.1875 2.8125 40.3425 2.8125 27C2.8125 13.6575 13.6575 2.8125 27 2.8125C40.3425 2.8125 51.1875 13.6575 51.1875 27C51.1875 40.3425 40.3425 51.1875 27 51.1875ZM27 6.1875C15.525 6.1875 6.1875 15.525 6.1875 27C6.1875 38.475 15.525 47.8125 27 47.8125C38.475 47.8125 47.8125 38.475 47.8125 27C47.8125 15.525 38.475 6.1875 27 6.1875Z" fill="#0087D4"/>
<path d="M27 30.9375C26.0775 30.9375 25.3125 30.1725 25.3125 29.25V18C25.3125 17.0775 26.0775 16.3125 27 16.3125C27.9225 16.3125 28.6875 17.0775 28.6875 18V29.25C28.6875 30.1725 27.9225 30.9375 27 30.9375Z" fill="#0087D4"/>
<path d="M27 38.25C26.7075 38.25 26.415 38.1825 26.145 38.07C25.875 37.9575 25.6275 37.8 25.4025 37.5975C25.2 37.3725 25.0425 37.1475 24.93 36.855C24.8175 36.585 24.75 36.2925 24.75 36C24.75 35.7075 24.8175 35.415 24.93 35.145C25.0425 34.875 25.2 34.6275 25.4025 34.4025C25.6275 34.2 25.875 34.0425 26.145 33.93C26.685 33.705 27.315 33.705 27.855 33.93C28.125 34.0425 28.3725 34.2 28.5975 34.4025C28.8 34.6275 28.9575 34.875 29.07 35.145C29.1825 35.415 29.25 35.7075 29.25 36C29.25 36.2925 29.1825 36.585 29.07 36.855C28.9575 37.1475 28.8 37.3725 28.5975 37.5975C28.3725 37.8 28.125 37.9575 27.855 38.07C27.585 38.1825 27.2925 38.25 27 38.25Z" fill="#0087D4"/>
</svg>
